<?xml version="1.0" encoding="iso-8859-1"?>
<!-- Generator: Adobe Illustrator 19.0.0, SVG Export Plug-In . SVG Version: 6.00 Build 0)  -->
<svg xmlns="http://www.w3.org/2000/svg" xmlns:xlink="http://www.w3.org/1999/xlink" version="1.1" id="Layer_1" x="0px" y="0px" viewBox="0 0 512 512" style="enable-background:new 0 0 512 512;" xml:space="preserve" width="512" height="512">
<path d="M326.988,0c-102.009,0-185,82.991-185,185c0,43.815,15.321,84.113,40.874,115.842l-24.438,24.438  c-8.11-5.385-17.621-8.279-27.578-8.279c-13.355,0-25.912,5.201-35.355,14.645l-80.859,80.858  c-19.494,19.495-19.494,51.215,0,70.711l14.142,14.142c9.444,9.443,22,14.645,35.355,14.645s25.912-5.201,35.355-14.645  l80.859-80.858c17.073-17.074,19.192-43.524,6.359-62.928l24.443-24.443C242.875,354.679,283.173,370,326.988,370  c102.009,0,185-82.99,185-185C511.988,82.991,428.998,0,326.988,0z M152.06,388.213l-80.859,80.858  c-2.548,2.548-5.523,2.929-7.07,2.929s-4.523-0.381-7.071-2.93L42.917,454.93c-3.899-3.899-3.899-10.244,0-14.143l80.859-80.858  c2.548-2.548,5.523-2.929,7.07-2.929s4.523,0.381,7.071,2.93l14.142,14.141C155.958,377.97,155.958,384.314,152.06,388.213z   M326.988,330c-79.953,0-145-65.047-145-145s65.047-145,145-145s145,65.047,145,145S406.941,330,326.988,330z M346.988,165h55v40  h-55v55h-40v-55h-55v-40h55v-55h40V165z"/>















</svg>
